Coordinates
version=1
nRows=8
nColumns=40
inDegrees=yes

Units are S.I. units (second, meters, Newtons, ...)
Angles are in degrees.

endheader
time	pelvis_tilt	pelvis_list	pelvis_rotation	pelvis_tx	pelvis_ty	pelvis_tz	hip_flexion_r	hip_adduction_r	hip_rotation_r	knee_angle_r	knee_angle_r_beta	ankle_angle_r	subtalar_angle_r	mtp_angle_r	hip_flexion_l	hip_adduction_l	hip_rotation_l	knee_angle_l	knee_angle_l_beta	ankle_angle_l	subtalar_angle_l	mtp_angle_l	lumbar_extension	lumbar_bending	lumbar_rotation	arm_flex_r	arm_add_r	arm_rot_r	elbow_flex_r	pro_sup_r	wrist_flex_r	wrist_dev_r	arm_flex_l	arm_add_l	arm_rot_l	elbow_flex_l	pro_sup_l	wrist_flex_l	wrist_dev_l
     24.48000000	     -4.11872331	     -4.20752172	     -5.50047692	      0.97901317	      0.92698556	      0.58743213	     15.17986624	      5.83302882	     -5.95274557	     21.56080432	     21.56080432	     13.26698876	      1.77801228	     -1.95900179	     23.01641270	    -14.90003078	      0.12285722	     55.56073516	     55.56073516	     13.97528780	    -18.97338762	     14.88558198	     -9.63364519	      5.84254676	     -0.87889750	     10.70898211	    -19.95131642	    -15.43989062	     45.88020870	     45.60666412	      0.00000000	      0.00000000	     15.83272747	     -8.58891321	      0.30679929	     45.22074218	     45.81241567	      0.00000000	      0.00000000
     24.50242857	     -3.59419822	     -4.16513565	     -4.45541424	      0.97847226	      0.92444050	      0.58940162	     15.48574885	      5.86238042	     -5.73852015	     23.66067714	     23.66067714	     14.23020834	     -0.53422784	     -2.33994914	     24.52894637	    -14.97222242	      0.54545572	     56.15106374	     56.15106374	     14.16183703	    -19.11567399	     15.22095965	    -10.00370429	      5.51920377	     -0.95652222	     13.22007959	    -19.34342003	    -15.48089995	     47.08162314	     45.57971452	      0.00000000	      0.00000000	     12.85743174	     -8.61384892	      0.72072027	     42.18294576	     45.73192431	      0.00000000	      0.00000000
     24.52485714	     -2.97951293	     -4.23946741	     -3.34219037	      0.97790243	      0.92180548	      0.59135215	     15.57316240	      6.12698160	     -5.34796699	     25.54857814	     25.54857814	     15.22566374	     -3.20627739	     -2.06409085	     26.03680661	    -15.08835315	      1.08199510	     56.58652654	     56.58652654	     14.82102546	    -19.20866304	     16.86361388	    -10.43286745	      5.33605888	     -0.79491367	     16.22911349	    -18.95970705	    -15.36876990	     47.01675736	     45.60176499	      0.00000000	      0.00000000	     10.98662916	     -8.42339386	      1.38413791	     36.28513653	     45.66922418	      0.00000000	      0.00000000
     24.54728571	     -2.44048036	     -4.23292185	     -2.17439056	      0.97719175	      0.91877749	      0.59304297	     15.84870109	      6.23606457	     -5.29328076	     27.63491091	     27.63491091	     16.30414405	     -5.38103822	     -1.76691039	     27.62151462	    -15.08370344	      1.56006485	     56.65591964	     56.65591964	     15.18305590	    -19.28563490	     18.00889039	    -10.83534692	      5.09248890	     -0.67062956	     19.14507417	    -18.56861313	    -15.41741160	     47.30611300	     45.61762516	      0.00000000	      0.00000000	      8.86608114	     -8.39554868	      1.73845758	     31.36953636	     45.65287394	      0.00000000	      0.00000000
     24.56971429	     -1.86189675	     -4.25225931	     -0.98072698	      0.97642599	      0.91558701	      0.59439226	     16.01953056	      6.31317546	     -5.51955575	     29.59561679	     29.59561679	     17.23371809	     -7.13968784	     -2.06770505	     29.07612980	    -15.06715449	      1.96447548	     56.29540341	     56.29540341	     15.19059676	    -19.33472881	     18.14570819	    -11.39373211	      4.91918577	     -0.17100085	     21.69128278	    -18.63792153	    -15.54373074	     48.44907750	     45.59691892	      0.00000000	      0.00000000	      6.24494711	     -8.58447732	      1.85706838	     29.30072290	     45.60388735	      0.00000000	      0.00000000
     24.59214286	     -1.49601623	     -4.24191170	      0.25555068	      0.97557843	      0.91241729	      0.59541957	     16.29485704	      6.45733543	     -5.51184269	     31.27056292	     31.27056292	     17.99349594	     -9.31825171	     -1.93038155	     30.60300338	    -14.88645999	      2.40276900	     55.38028896	     55.38028896	     15.04148863	    -19.37740592	     18.51929345	    -11.62830842	      4.74671077	     -0.29703831	     24.54978394	    -18.23393636	    -15.57108871	     49.50422566	     45.57633433	      0.00000000	      0.00000000	      3.62515283	     -9.05250341	      2.07470883	     26.39091749	     45.54468210	      0.00000000	      0.00000000
     24.61457143	     -1.13272507	     -4.26999708	      1.49572762	      0.97470972	      0.90961727	      0.59596165	     16.39371714	      6.59541243	     -5.71092284	     32.61002165	     32.61002165	     18.75042363	    -11.12329126	     -1.55693301	     31.96325869	    -14.61725833	      2.85251151	     54.00105818	     54.00105818	     14.65028967	    -19.38703198	     18.83075574	    -11.86780003	      4.69259644	     -0.17862665	     27.50753538	    -18.13125215	    -15.56280391	     50.11917273	     45.57194730	      0.00000000	      0.00000000	      1.40229070	     -9.44022450	      2.32519566	     23.69742973	     45.48656935	      0.00000000	      0.00000000
     24.63700000	     -0.76802591	     -4.33367465	      2.71639722	      0.97387769	      0.90750648	      0.59596366	     16.23984063	      6.62915340	     -6.29992678	     33.48951389	     33.48951389	     19.33544073	    -12.03469420	     -1.62641251	     33.06839097	    -14.24320883	      3.32823721	     52.11917495	     52.11917495	     13.93894647	    -19.34813899	     19.14457582	    -12.09950662	      4.73091984	      0.91146688	     29.79499449	    -19.07084784	    -15.74181514	     50.85836548	     45.56775671	      0.00000000	      0.00000000	     -0.55397751	     -9.81719278	      2.31595210	     22.65902706	     45.45691915	      0.00000000	      0.00000000
